<svg width="51" height="48" viewBox="0 0 51 48" fill="none" xmlns="http://www.w3.org/2000/svg">
<path d="M25.4999 47.2643L21.8144 43.9093C8.72485 32.0397 0.0831814 24.2113 0.0831814 14.6039C0.0651816 12.7631 0.414472 10.9372 1.11062 9.23303C1.80676 7.52887 2.83578 5.98066 4.13747 4.67897C5.43916 3.37728 6.98737 2.34827 8.69153 1.65212C10.3957 0.955976 12.2216 0.606685 14.0623 0.624685C16.2377 0.641276 18.3842 1.12401 20.3572 2.04036C22.3302 2.9567 24.0838 4.28536 25.4999 5.93677C26.9159 4.28536 28.6695 2.9567 30.6425 2.04036C32.6155 1.12401 34.762 0.641276 36.9374 0.624685C38.7781 0.606685 40.604 0.955976 42.3082 1.65212C44.0123 2.34827 45.5606 3.37728 46.8622 4.67897C48.1639 5.98066 49.1929 7.52887 49.8891 9.23303C50.5852 10.9372 50.9345 12.7631 50.9165 14.6039C50.9165 24.2113 42.2749 32.0397 29.1853 43.9347L25.4999 47.2643Z" fill="black"/>
</svg>
